HIERARCHY
ROOT Hips
{
	OFFSET -3.958830 18.904000 13.208200
	CHANNELS 6 Xposition Yposition Zposition Zrotation Yrotation Xrotation 
	JOINT LHipJoint
	{
		OFFSET 0.000000 0.000000 0.000000
		CHANNELS 3 Zrotation Yrotation Xrotation
		JOINT LeftUpLeg
		{
			OFFSET 1.800000 -1.400000 0.085000
			CHANNELS 3 Zrotation Yrotation Xrotation
			JOINT LeftLeg
			{
				OFFSET 2.215000 -6.000000 0.000000
				CHANNELS 3 Zrotation Yrotation Xrotation
				JOINT LeftFoot
				{
					OFFSET 2.500000 -6.900000 0.000000
					CHANNELS 3 Zrotation Yrotation Xrotation
					JOINT LeftToeBase
					{
						OFFSET 0.200000 -0.500000 1.950000
						CHANNELS 3 Zrotation Yrotation Xrotation
						End Site
						{
							OFFSET 0.000000 0.000000 0.000000
						}
					}
				}
			}
		}
	}
	JOINT RHipJoint
	{
		OFFSET 0.000000 0.000000 0.000000
		CHANNELS 3 Zrotation Yrotation Xrotation
		JOINT RightUpLeg
		{
			OFFSET -1.800000 -1.400000 0.085000
			CHANNELS 3 Zrotation Yrotation Xrotation
			JOINT RightLeg
			{
				OFFSET -2.215000 -6.000000 0.000000
				CHANNELS 3 Zrotation Yrotation Xrotation
				JOINT RightFoot
				{
					OFFSET -2.500000 -6.900000 0.000000
					CHANNELS 3 Zrotation Yrotation Xrotation
					JOINT RightToeBase
					{
						OFFSET -0.200000 -0.500000 1.950000
						CHANNELS 3 Zrotation Yrotation Xrotation
						End Site
						{
							OFFSET 0.000000 0.000000 0.000000
						}
					}
				}
			}
		}
	}
	JOINT LowerBack
	{
		OFFSET 0.000000 0.000000 0.000000
		CHANNELS 3 Zrotation Yrotation Xrotation
		JOINT Spine
		{
			OFFSET -0.087000 1.940000 -0.288900
			CHANNELS 3 Zrotation Yrotation Xrotation
			JOINT Spine1
			{
				OFFSET 0.000000 1.950000 0.060000
				CHANNELS 3 Zrotation Yrotation Xrotation
				JOINT Neck
				{
					OFFSET 0.000000 0.000000 0.000000
					CHANNELS 3 Zrotation Yrotation Xrotation
					JOINT Neck1
					{
						OFFSET 0.000000 1.600000 0.340000
						CHANNELS 3 Zrotation Yrotation Xrotation
						JOINT Head
						{
							OFFSET 0.000000 1.667000 -0.240000
							CHANNELS 3 Zrotation Yrotation Xrotation
							End Site
							{
								OFFSET 0.000000 0.000000 0.000000
							}
						}
					}
				}
				JOINT LeftShoulder
				{
					OFFSET 0.000000 0.000000 0.000000
					CHANNELS 3 Zrotation Yrotation Xrotation
					JOINT LeftArm
					{
						OFFSET 2.700000 1.550000 -0.730000
						CHANNELS 3 Zrotation Yrotation Xrotation
						JOINT LeftForeArm
						{
							OFFSET 5.450000 0.000000 0.000000
							CHANNELS 3 Zrotation Yrotation Xrotation
							JOINT LeftHand
							{
								OFFSET 3.450000 0.000000 0.000000
								CHANNELS 3 Zrotation Yrotation Xrotation
								JOINT LeftHandIndex1
								{
									OFFSET 0.750000 0.000000 0.000000
									CHANNELS 3 Zrotation Yrotation Xrotation
									End Site
									{
										OFFSET 0.000000 0.000000 0.000000
									}
								}
							}
						}
					}
				}
				JOINT RightShoulder
				{
					OFFSET 0.000000 0.000000 0.000000
					CHANNELS 3 Zrotation Yrotation Xrotation
					JOINT RightArm
					{
						OFFSET -2.700000 1.550000 -0.730000
						CHANNELS 3 Zrotation Yrotation Xrotation
						JOINT RightForeArm
						{
							OFFSET -5.450000 0.000000 0.000000
							CHANNELS 3 Zrotation Yrotation Xrotation
							JOINT RightHand
							{
								OFFSET -3.450000 0.000000 0.000000
								CHANNELS 3 Zrotation Yrotation Xrotation
								JOINT RightHandIndex1
								{
									OFFSET -0.750000 0.000000 0.000000
									CHANNELS 3 Zrotation Yrotation Xrotation
									End Site
									{
										OFFSET 0.000000 0.000000 0.000000
									}
								}
							}
						}
					}
				}
			}
		}
	}
}
MOTION
Frames: 6
Frame Time: 0.016667
0.591930 16.958350 -6.987770 161.381627 -85.113279 -173.623422 -15.939438 10.734299 6.339325 23.147031 -5.149267 -31.825465 -51.172053 27.475551 31.577139 1.759670 12.235961 0.504407 1.002680 0.861310 0.589510 17.847769 -9.990629 1.797443 -3.915583 -1.628429 14.603855 -3.417198 -6.259546 29.728498 -1.541840 -6.325966 2.303319 0.322890 0.031970 0.448660 -4.238297 -1.581024 -8.712518 -5.457504 2.119967 28.035428 -10.412723 5.879954 -0.329677 -0.099536 -10.970345 -15.248144 -47.124403 34.214998 17.661834 -2.890890 18.468710 -26.686390 -14.749635 -3.620626 3.149528 -21.246046 -1.117008 -2.436328 -75.488320 -48.311911 31.896249 -3.307324 3.670260 0.767330 -0.185010 0.523110 0.483490 16.046920 9.545109 9.390285 -2.396557 -19.141695 -0.091048 -24.202842 5.540881 0.176723 2.485699 -1.529432 0.146200 0.275480 -0.353360 -0.020500 
0.729210 16.903300 -6.993790 146.857635 -83.125756 -160.570025 -16.079920 10.249099 6.654315 26.456820 -5.086541 -32.932930 -56.640363 30.350626 32.219934 1.955458 12.815008 0.373703 0.980040 0.823710 0.548900 17.771644 -10.033028 1.641263 -5.575962 -1.789287 15.957963 -3.349204 -6.581139 29.176054 -1.543179 -6.485474 2.283282 0.302200 0.048550 0.456490 -4.313256 -1.568955 -8.904957 -9.626787 2.348746 31.778737 -10.211810 5.841176 -0.145762 0.033738 -11.252734 -15.542110 -47.697616 33.176837 15.121934 -4.807870 17.556190 -26.785240 -13.362127 -5.231431 3.163495 -19.235875 -3.796386 -2.771876 -73.739136 -51.445346 33.193964 -3.308525 3.676480 0.763710 -0.165290 0.495700 0.492340 14.666850 11.240187 9.713148 -6.266272 -22.709132 1.029494 -17.781148 17.627454 -0.592132 2.254095 -1.600408 0.141260 0.271020 -0.329960 -0.017900 
0.877270 16.847330 -6.990890 140.072795 -81.800547 -155.284344 -15.988672 9.744595 6.895832 29.211848 -5.181971 -33.939479 -60.476061 33.067257 33.498404 2.228872 13.125950 0.314451 1.036180 0.918750 0.538440 17.901468 -10.233245 1.552599 -6.958035 -2.060159 17.071216 -3.804106 -6.610187 28.832643 -1.592514 -6.577849 2.238739 0.312100 -0.021100 0.450310 -4.645898 -0.813783 -9.073492 -12.155140 2.238863 36.335721 -11.192558 5.359275 -0.623335 0.237901 -11.479762 -16.623401 -48.165813 32.066131 13.183011 -2.658100 15.774800 -26.669650 -10.928312 -7.384449 4.130491 -16.958320 -4.344061 -3.542388 -78.723423 -55.603284 39.120229 -3.184600 3.807275 0.718060 -0.240650 0.538240 0.528140 12.414686 13.428840 10.271545 -7.258227 -28.282866 0.648476 -12.402990 29.612321 -0.815586 2.193653 -1.827977 0.231800 0.207760 -0.399910 0.047110 
1.020570 16.791370 -6.973940 125.890871 -82.316965 -143.046767 -15.821853 9.358446 7.064977 30.542620 -6.314816 -35.192483 -62.239037 35.621179 36.212947 2.514867 13.504984 0.271383 1.005750 0.887770 0.496090 18.078311 -10.402954 1.552962 -7.530407 -2.609237 18.554614 -4.559840 -6.612987 28.519159 -1.621834 -6.697868 2.212145 0.241730 -0.040870 0.455950 -4.725817 -0.412431 -9.154880 -15.011833 2.375926 42.330614 -11.650871 5.030276 -0.653697 1.472471 -11.821759 -17.845449 -47.235078 29.740395 12.379180 -2.276180 13.913380 -25.034800 -8.727797 -9.057123 4.414299 -14.584840 -5.534480 -4.384171 -88.285866 -57.066425 46.303996 -3.104627 3.918420 0.659520 -0.268660 0.536910 0.541360 8.512688 15.808027 11.615627 -4.911613 -34.203170 -1.146967 -5.279284 37.185599 0.029673 2.140177 -2.044913 0.299460 0.137860 -0.424510 0.100610 
1.180480 16.738210 -6.953950 124.767452 -81.844452 -142.841420 -15.833981 9.123927 7.287812 32.741837 -5.830124 -36.844213 -62.411693 37.737761 38.458344 2.584800 13.785136 0.193312 0.992110 0.868050 0.497280 18.110878 -10.432380 1.440434 -8.361013 -2.589388 18.456948 -4.817238 -6.589332 28.606770 -1.607876 -6.722094 2.198699 0.222560 -0.075690 0.465150 -4.778521 -0.077277 -9.214222 -16.170288 3.117020 46.420540 -12.548847 6.052475 0.108549 2.286088 -12.354660 -17.798259 -45.680882 27.053595 12.324434 -4.511590 12.325440 -25.542530 -7.016805 -9.054676 3.257812 -13.594043 -9.244197 -4.891003 -88.675055 -58.662253 47.831439 -3.098487 3.925771 0.647520 -0.269440 0.536640 0.522690 5.015881 16.901192 12.125155 -2.224329 -37.444140 -3.325299 -2.194257 42.367434 0.474905 2.031809 -2.205665 0.316810 0.102370 -0.418370 0.094050 
1.318900 16.710480 -6.946610 74.184392 -85.127571 -93.765652 -15.170237 9.148074 7.347312 31.444472 -9.795741 -39.021782 -53.614095 38.300551 47.617005 2.658847 14.733298 -0.067772 0.980660 0.857080 0.501170 18.757059 -10.293160 1.615473 -5.945196 -3.954247 18.549020 -3.305827 -7.558176 30.101557 -1.639902 -6.958687 2.108341 0.253860 -0.048930 0.472530 -4.424867 0.514973 -9.177833 -14.678132 0.983916 53.281406 -14.911509 5.154306 2.545141 3.135883 -13.172875 -17.934617 -41.454710 21.416441 11.608669 -5.450500 8.936150 -23.114210 -1.215397 -9.505103 2.845704 -17.542985 -15.059978 -6.524229 -87.732144 -63.351306 49.186126 -3.168173 3.909657 0.579330 -0.197920 0.484740 0.510100 -2.540622 17.125188 12.108965 11.042347 -38.881119 -9.997655 1.681430 41.817037 1.448041 1.702282 -2.306165 0.304070 0.093600 -0.408730 0.085710 
